#!OML:ASF G:\JayActor3\Patient Classification 1\Patient 1\Session 6\male.ASF
:FULLY-SPECIFIED
:DEGREES
1119
root -33.1739 16.3889 -16.3303 -548.462 -73.1719 189.043
lowerback -1.70808 -1.21346 4.23203
upperback 0.314664 -1.74252 1.17384
thorax 1.19215 -0.852671 -1.21163
lowerneck 3.66587 -3.58172 0.480359
upperneck -12.0109 -4.47511 4.84407
head -4.52484 -2.56129 1.78857
rclavicle -5.17951e-014 -1.17283e-014
rhumerus -26.1835 20.5346 -88.1514
rradius 87.4785
rwrist -6.7159
rhand -54.8385 -2.03556
rfingers 7.12502
rthumb -27.2257 -30.0908
lclavicle -5.17951e-014 -1.17283e-014
lhumerus -31.9213 2.78265 79.1105
lradius 81.5489
lwrist 72.3675
lhand -36.0053 7.46213
lfingers 7.12502
lthumb -9.11492 37.2452
rfemur -12.24 -5.06767 28.0258
rtibia 36.346
rfoot -29.24 -17.5583
rtoes 1.745
lfemur -8.89627 7.3023 -17.7141
ltibia 29.3659
lfoot -19.3105 -2.59668
ltoes 1.52411
1120
root -33.1656 16.389 -16.3304 -548.548 -73.1359 189.13
lowerback -1.64634 -1.21806 4.26145
upperback 0.274661 -1.74515 1.19459
thorax 1.11608 -0.856008 -1.20469
lowerneck 3.59866 -3.57836 0.47573
upperneck -11.8936 -4.47461 4.82748
head -4.46866 -2.55663 1.77757
rclavicle 9.99437e-015 6.36111e-015
rhumerus -26.4841 20.6104 -88.3926
rradius 87.2972
rwrist -6.75059
rhand -54.8634 -2.01042
rfingers 7.12502
rthumb -27.2495 -30.0619
lclavicle 9.99437e-015 6.36111e-015
lhumerus -32.1947 2.85325 79.1697
lradius 81.273
lwrist 72.2991
lhand -35.9335 7.4525
lfingers 7.12502
lthumb -9.04564 37.2385
rfemur -12.2571 -5.05333 28.0755
rtibia 36.3269
rfoot -29.2137 -17.5716
rtoes 1.78637
lfemur -8.91755 7.36323 -17.6654
ltibia 29.3629
lfoot -19.3091 -2.61341
ltoes 1.54422
1121
root -33.1574 16.389 -16.3308 -548.639 -73.0973 189.216
lowerback -1.58274 -1.22326 4.28599
upperback 0.238381 -1.74844 1.2159
thorax 1.04291 -0.859625 -1.19446
lowerneck 3.51851 -3.5778 0.476531
upperneck -11.7643 -4.47874 4.80304
head -4.40579 -2.55376 1.76239
rclavicle 5.6675e-015 9.93923e-015
rhumerus -26.7725 20.6887 -88.6236
rradius 87.1203
rwrist -6.79264
rhand -54.9048 -2.02388
rfingers 7.12502
rthumb -27.2891 -30.0691
lclavicle 5.6675e-015 9.93923e-015
lhumerus -32.4505 2.92666 79.2233
lradius 80.9998
lwrist 72.2476
lhand -35.8633 7.45288
lfingers 7.12502
lthumb -8.97791 37.2418
rfemur -12.2686 -5.03146 28.1272
rtibia 36.3069
rfoot -29.1949 -17.586
rtoes 1.85304
lfemur -8.93581 7.41751 -17.6169
ltibia 29.3652
lfoot -19.3135 -2.62153
ltoes 1.55659
1122
root -33.1497 16.3889 -16.3314 -548.731 -73.0576 189.3
lowerback -1.52793 -1.22844 4.30704
upperback 0.21045 -1.75232 1.23597
thorax 0.983297 -0.863182 -1.18391
lowerneck 3.42625 -3.58006 0.483086
upperneck -11.6272 -4.48717 4.77368
head -4.33799 -2.55283 1.74414
rclavicle 2.1311e-014 3.57812e-015
rhumerus -27.0446 20.7578 -88.8423
rradius 86.9489
rwrist -6.8221
rhand -54.9418 -2.06313
rfingers 7.12502
rthumb -27.3245 -30.1028
lclavicle 2.1311e-014 3.57812e-015
lhumerus -32.6844 3.00009 79.2709
lradius 80.7306
lwrist 72.2129
lhand -35.794 7.44683
lfingers 7.12502
lthumb -8.91104 37.2387
rfemur -12.2732 -5.00756 28.1786
rtibia 36.287
rfoot -29.1916 -17.5917
rtoes 1.96931
lfemur -8.94899 7.46254 -17.5705
ltibia 29.3713
lfoot -19.3238 -2.61047
ltoes 1.52734
1123
root -33.1424 16.3887 -16.332 -548.826 -73.0184 189.38
lowerback -1.48447 -1.23424 4.32871
upperback 0.19516 -1.75799 1.25216
thorax 0.942804 -0.86707 -1.17818
lowerneck 3.32529 -3.58233 0.490904
upperneck -11.4907 -4.49546 4.74925
head -4.26882 -2.5522 1.72716
rclavicle -8.22899e-015 -1.37161e-014
rhumerus -27.2914 20.8208 -89.0498
rradius 86.7781
rwrist -6.83575
rhand -54.9603 -2.11858
rfingers 7.12502
rthumb -27.3422 -30.1555
lclavicle -8.22899e-015 -1.37161e-014
lhumerus -32.888 3.07418 79.3094
lradius 80.4631
lwrist 72.1899
lhand -35.7321 7.44839
lfingers 7.12502
lthumb -8.85128 37.2428
rfemur -12.2708 -4.98974 28.2275
rtibia 36.2688
rfoot -29.1943 -17.5868
rtoes 2.10309
lfemur -8.95579 7.499 -17.5271
ltibia 29.3799
lfoot -19.3335 -2.58394
ltoes 1.48049
1124
root -33.1355 16.3881 -16.3326 -548.926 -72.9822 189.462
lowerback -1.45935 -1.24077 4.35309
upperback 0.194907 -1.76613 1.26474
thorax 0.927727 -0.871475 -1.17837
lowerneck 3.21395 -3.58475 0.498511
upperneck -11.3566 -4.50393 4.73036
head -4.19857 -2.55204 1.71191
rclavicle -5.29575e-014 1.70955e-014
rhumerus -27.5059 20.879 -89.2437
rradius 86.6062
rwrist -6.83865
rhand -54.9563 -2.15087
rfingers 7.12502
rthumb -27.3384 -30.1884
lclavicle -5.29575e-014 1.70955e-014
lhumerus -33.0581 3.15074 79.3415
lradius 80.1984
lwrist 72.174
lhand -35.6784 7.45213
lfingers 7.12502
lthumb -8.79944 37.2487
rfemur -12.2646 -4.98253 28.2742
rtibia 36.2525
rfoot -29.1817 -17.5916
rtoes 2.1699
lfemur -8.95839 7.52536 -17.4858
ltibia 29.3909
lfoot -19.3443 -2.54294
ltoes 1.4116
1125
root -33.129 16.3875 -16.3332 -549.017 -72.9514 189.528
lowerback -1.44674 -1.24813 4.37616
upperback 0.206799 -1.77637 1.27223
thorax 0.931907 -0.876349 -1.1836
lowerneck 3.10597 -3.58909 0.503545
upperneck -11.2288 -4.51444 4.71855
head -4.1312 -2.55334 1.69996
rclavicle -2.38635e-014 2.26615e-014
rhumerus -27.6942 20.9355 -89.4247
rradius 86.4331
rwrist -6.82596
rhand -54.9328 -2.15388
rfingers 7.12502
rthumb -27.3159 -30.1949
lclavicle -2.38635e-014 2.26615e-014
lhumerus -33.2016 3.22778 79.3692
lradius 79.9398
lwrist 72.1634
lhand -35.6342 7.4423
lfingers 7.12502
lthumb -8.75684 37.2406
rfemur -12.2517 -4.99101 28.3115
rtibia 36.2394
rfoot -29.1646 -17.5895
rtoes 2.20648
lfemur -8.95398 7.53405 -17.4518
ltibia 29.4035
lfoot -19.3542 -2.4915
ltoes 1.35786
